<svg id="svg" class="path"  version="1.1" xmlns="http://www.w3.org/2000/svg"
     style="background-color: rgb(233, 177, 109);">
    <path fill="#e8ac6c" stroke="#e8ac6c"
          d="M -50 922 L -50 0 C -44.8 0, -3.2 20, 2 20 C 6.3 20, 40.7 14, 45 14 C 52.5 14, 112.5 -14, 120 -14 C 127.9 -14, 191.1 -13, 199 -13 C 206.7 -13, 268.3 16, 276 16 C 283.7 16, 345.3 -14, 353 -14 C 359.1 -14, 407.9 17, 414 17 C 418.8 17, 457.2 18, 462 18 C 467 18, 507 12, 512 12 C 517.9 12, 565.1 -11, 571 -11 C 578.2 -11, 635.8 12, 643 12 C 647.8 12, 686.2 -11, 691 -11 C 695.1 -11, 727.9 13, 732 13 C 736.8 13, 775.2 15, 780 15 C 786.5 15, 838.5 -20, 845 -20 C 852.3 -20, 910.7 18, 918 18 C 923.4 18, 966.6 -12, 972 -12 C 979.6 -12, 1040.4 -20, 1048 -20 C 1054.7 -20, 1108.3 18, 1115 18 C 1121.8 18, 1176.2 14, 1183 14 C 1189.4 14, 1240.6 -19, 1247 -19 C 1252 -19, 1292 13, 1297 13 C 1301.5 13, 1337.5 -17, 1342 -17 C 1346.3 -17, 1380.7 -19, 1385 -19 C 1389.4 -19, 1424.6 -11, 1429 -11 C 1434.2 -11, 1475.8 -14, 1481 -14 C 1485.5 -14, 1521.5 -12, 1526 -12 C 1531.3 -12, 1573.7 -20, 1579 -20 C 1583.3 -20, 1617.7 -14, 1622 -14 C 1626 -14, 1658 19, 1662 19 C 1669.2 19, 1726.8 -12, 1734 -12 C 1739.9 -12, 1787.1 15, 1793 15 C 1798.8 15, 1845.2 12, 1851 12 C 1856.5 12, 1900.5 10, 1906 10 C 1912.1 10, 1960.9 14, 1967 14 L 1970 0 L 1970 922 Z"></path>
    <path fill="#e6a76b" stroke="#e6a76b"
          d="M -50 922 L -51 17 C -46.5 17, -10.5 33, -6 33 C 0.5 33, 52.5 4, 59 4 C 63.2 4, 96.8 32, 101 32 C 107.5 32, 159.5 28, 166 28 C 173.8 28, 236.2 35, 244 35 C 250.5 35, 302.5 1, 309 1 C 314.1 1, 354.9 1, 360 1 C 364.5 1, 400.5 28, 405 28 C 411.2 28, 460.8 -1, 467 -1 C 472.7 -1, 518.3 5, 524 5 C 531.1 5, 587.9 -3, 595 -3 C 599.6 -3, 636.4 33, 641 33 C 647.2 33, 696.8 35, 703 35 C 709.8 35, 764.2 5, 771 5 C 776.4 5, 819.6 29, 825 29 C 831.8 29, 886.2 0, 893 0 C 897.1 0, 929.9 0, 934 0 C 941.9 0, 1005.1 31, 1013 31 C 1018.6 31, 1063.4 36, 1069 36 C 1074.3 36, 1116.7 29, 1122 29 C 1128 29, 1176 3, 1182 3 C 1188.6 3, 1241.4 32, 1248 32 C 1255.8 32, 1318.2 33, 1326 33 C 1333 33, 1389 1, 1396 1 C 1400 1, 1432 37, 1436 37 C 1441.1 37, 1481.9 34, 1487 34 C 1493.7 34, 1547.3 2, 1554 2 C 1561 2, 1617 -2, 1624 -2 C 1631 -2, 1687 0, 1694 0 C 1699.4 0, 1742.6 37, 1748 37 C 1755.1 37, 1811.9 33, 1819 33 C 1824.8 33, 1871.2 -3, 1877 -3 C 1882.4 -3, 1925.6 0, 1931 0 L 1970 17 L 1970 922 Z"></path>
    <path fill="#e4a26a" stroke="#e4a26a"
          d="M -50 922 L -52 34 C -46.9 34, -6.1 17, -1 17 C 6.3 17, 64.7 19, 72 19 C 76.3 19, 110.7 21, 115 21 C 120.6 21, 165.4 23, 171 23 C 176.5 23, 220.5 45, 226 45 C 232.1 45, 280.9 45, 287 45 C 291 45, 323 22, 327 22 C 334.3 22, 392.7 48, 400 48 C 404.7 48, 442.3 49, 447 49 C 454.3 49, 512.7 46, 520 46 C 525.2 46, 566.8 20, 572 20 C 578.4 20, 629.6 21, 636 21 C 640.9 21, 680.1 19, 685 19 C 690.7 19, 736.3 20, 742 20 C 749.7 20, 811.3 16, 819 16 C 823.6 16, 860.4 19, 865 19 C 871.6 19, 924.4 22, 931 22 C 938.3 22, 996.7 49, 1004 49 C 1009.6 49, 1054.4 49, 1060 49 C 1067.6 49, 1128.4 44, 1136 44 C 1143.3 44, 1201.7 22, 1209 22 C 1214.3 22, 1256.7 51, 1262 51 C 1269.5 51, 1329.5 20, 1337 20 C 1344.1 20, 1400.9 50, 1408 50 C 1413 50, 1453 49, 1458 49 C 1465.8 49, 1528.2 18, 1536 18 C 1541.3 18, 1583.7 45, 1589 45 C 1594.3 45, 1636.7 17, 1642 17 C 1648.2 17, 1697.8 24, 1704 24 C 1710.8 24, 1765.2 20, 1772 20 C 1777.8 20, 1824.2 51, 1830 51 C 1835.3 51, 1877.7 52, 1883 52 C 1888.3 52, 1930.7 50, 1936 50 L 1970 34 L 1970 922 Z"></path>
    <path fill="#e29d6a" stroke="#e29d6a"
          d="M -50 922 L -53 52 C -48 52, -8 71, -3 71 C 1.2999999999999998 71, 35.7 65, 40 65 C 46.1 65, 94.9 64, 101 64 C 108.9 64, 172.1 69, 180 69 C 184.2 69, 217.8 32, 222 32 C 227.5 32, 271.5 34, 277 34 C 284.9 34, 348.1 71, 356 71 C 360.1 71, 392.9 36, 397 36 C 401.7 36, 439.3 41, 444 41 C 449.4 41, 492.6 38, 498 38 C 504.7 38, 558.3 42, 565 42 C 571.9 42, 627.1 72, 634 72 C 638.1 72, 670.9 37, 675 37 C 681.8 37, 736.2 72, 743 72 C 748.3 72, 790.7 64, 796 64 C 800.4 64, 835.6 41, 840 41 C 845.2 41, 886.8 66, 892 66 C 899.8 66, 962.2 40, 970 40 C 974.3 40, 1008.7 34, 1013 34 C 1019.8 34, 1074.2 71, 1081 71 C 1085.5 71, 1121.5 37, 1126 37 C 1131.3 37, 1173.7 35, 1179 35 C 1184.8 35, 1231.2 64, 1237 64 C 1244.4 64, 1303.6 66, 1311 66 C 1317.6 66, 1370.4 41, 1377 41 C 1381.4 41, 1416.6 39, 1421 39 C 1427 39, 1475 37, 1481 37 C 1486.9 37, 1534.1 34, 1540 34 C 1547.3 34, 1605.7 40, 1613 40 C 1620 40, 1676 67, 1683 67 C 1690.7 67, 1752.3 33, 1760 33 C 1767.2 33, 1824.8 38, 1832 38 C 1839.6 38, 1900.4 67, 1908 67 C 1912.8 67, 1951.2 36, 1956 36 L 1970 52 L 1970 922 Z"></path>
    <path fill="#e09869" stroke="#e09869"
          d="M -50 922 L -54 69 C -46.9 69, 9.9 56, 17 56 C 22.7 56, 68.3 87, 74 87 C 80.4 87, 131.6 85, 138 85 C 142.4 85, 177.6 84, 182 84 C 188.4 84, 239.6 81, 246 81 C 252.1 81, 300.9 89, 307 89 C 311.4 89, 346.6 52, 351 52 C 357.9 52, 413.1 87, 420 87 C 427.9 87, 491.1 84, 499 84 C 504.4 84, 547.6 59, 553 59 C 560.2 59, 617.8 53, 625 53 C 629.2 53, 662.8 81, 667 81 C 673.9 81, 729.1 51, 736 51 C 742.9 51, 798.1 51, 805 51 C 811.1 51, 859.9 49, 866 49 C 870 49, 902 84, 906 84 C 912 84, 960 49, 966 49 C 972.7 49, 1026.3 58, 1033 58 C 1037.5 58, 1073.5 88, 1078 88 C 1085.4 88, 1144.6 83, 1152 83 C 1157.9 83, 1205.1 89, 1211 89 C 1216.1 89, 1256.9 87, 1262 87 C 1268.6 87, 1321.4 51, 1328 51 C 1332 51, 1364 51, 1368 51 C 1374.9 51, 1430.1 54, 1437 54 C 1442.1 54, 1482.9 88, 1488 88 C 1493.6 88, 1538.4 55, 1544 55 C 1548.5 55, 1584.5 50, 1589 50 C 1595.2 50, 1644.8 50, 1651 50 C 1656.8 50, 1703.2 49, 1709 49 C 1714 49, 1754 57, 1759 57 C 1764.9 57, 1812.1 84, 1818 84 C 1823.6 84, 1868.4 79, 1874 79 C 1881.7 79, 1943.3 53, 1951 53 L 1970 69 L 1970 922 Z"></path>
    <path fill="#dd9369" stroke="#dd9369"
          d="M -50 922 L -55 87 C -47.6 87, 11.6 70, 19 70 C 26.8 70, 89.2 99, 97 99 C 104.6 99, 165.4 74, 173 74 C 178.5 74, 222.5 98, 228 98 C 234 98, 282 73, 288 73 C 294.2 73, 343.8 105, 350 105 C 357.3 105, 415.7 74, 423 74 C 428 74, 468 72, 473 72 C 478.3 72, 520.7 76, 526 76 C 531.3 76, 573.7 77, 579 77 C 585.5 77, 637.5 73, 644 73 C 648.2 73, 681.8 100, 686 100 C 691 100, 731 104, 736 104 C 742.7 104, 796.3 99, 803 99 C 810 99, 866 76, 873 76 C 878.9 76, 926.1 106, 932 106 C 939.4 106, 998.6 75, 1006 75 C 1010.8 75, 1049.2 75, 1054 75 C 1058.5 75, 1094.5 76, 1099 76 C 1104.3 76, 1146.7 76, 1152 76 C 1159.1 76, 1215.9 74, 1223 74 C 1227.9 74, 1267.1 106, 1272 106 C 1279.6 106, 1340.4 99, 1348 99 C 1352.3 99, 1386.7 103, 1391 103 C 1398.4 103, 1457.6 74, 1465 74 C 1469.2 74, 1502.8 69, 1507 69 C 1512.5 69, 1556.5 67, 1562 67 C 1569 67, 1625 103, 1632 103 C 1638.2 103, 1687.8 103, 1694 103 C 1700 103, 1748 75, 1754 75 C 1758.3 75, 1792.7 100, 1797 100 C 1801.6 100, 1838.4 100, 1843 100 C 1849.3 100, 1899.7 105, 1906 105 C 1911.7 105, 1957.3 99, 1963 99 L 1970 87 L 1970 922 Z"></path>
    <path fill="#da8e69" stroke="#da8e69"
          d="M -50 922 L -56 104 C -50.9 104, -10.1 116, -5 116 C 0.9000000000000004 116, 48.1 86, 54 86 C 60.5 86, 112.5 91, 119 91 C 124.2 91, 165.8 123, 171 123 C 175.2 123, 208.8 86, 213 86 C 220.3 86, 278.7 122, 286 122 C 292.2 122, 341.8 120, 348 120 C 355.1 120, 411.9 120, 419 120 C 425.7 120, 479.3 119, 486 119 C 493.7 119, 555.3 119, 563 119 C 567.7 119, 605.3 84, 610 84 C 615.3 84, 657.7 124, 663 124 C 669 124, 717 122, 723 122 C 728 122, 768 92, 773 92 C 778 92, 818 120, 823 120 C 828.4 120, 871.6 84, 877 84 C 881.5 84, 917.5 124, 922 124 C 926.6 124, 963.4 84, 968 84 C 975.1 84, 1031.9 121, 1039 121 C 1043.5 121, 1079.5 89, 1084 89 C 1088 89, 1120 87, 1124 87 C 1131.3 87, 1189.7 119, 1197 119 C 1203.4 119, 1254.6 115, 1261 115 C 1266 115, 1306 92, 1311 92 C 1317.9 92, 1373.1 91, 1380 91 C 1385.2 91, 1426.8 94, 1432 94 C 1439.4 94, 1498.6 124, 1506 124 C 1512.3 124, 1562.7 89, 1569 89 C 1574.2 89, 1615.8 124, 1621 124 C 1628.9 124, 1692.1 92, 1700 92 C 1704.6 92, 1741.4 85, 1746 85 C 1753.7 85, 1815.3 88, 1823 88 C 1827 88, 1859 123, 1863 123 C 1869 123, 1917 92, 1923 92 L 1970 104 L 1970 922 Z"></path>
    <path fill="#d78a69" stroke="#d78a69"
          d="M -50 922 L -57 122 C -51.3 122, -5.7 106, 0 106 C 4.2 106, 37.8 110, 42 110 C 48.1 110, 96.9 103, 103 103 C 109.7 103, 163.3 134, 170 134 C 175.2 134, 216.8 108, 222 108 C 229.4 108, 288.6 110, 296 110 C 303.8 110, 366.2 135, 374 135 C 378.8 135, 417.2 106, 422 106 C 429.8 106, 492.2 136, 500 136 C 504.3 136, 538.7 132, 543 132 C 547.6 132, 584.4 132, 589 132 C 594.7 132, 640.3 139, 646 139 C 653.5 139, 713.5 106, 721 106 C 728.2 106, 785.8 102, 793 102 C 799.8 102, 854.2 138, 861 138 C 867.9 138, 923.1 109, 930 109 C 936.7 109, 990.3 105, 997 105 C 1002.5 105, 1046.5 138, 1052 138 C 1056.5 138, 1092.5 110, 1097 110 C 1101 110, 1133 109, 1137 109 C 1141.8 109, 1180.2 133, 1185 133 C 1190.4 133, 1233.6 110, 1239 110 C 1245.1 110, 1293.9 132, 1300 132 C 1305.3 132, 1347.7 106, 1353 106 C 1360.8 106, 1423.2 137, 1431 137 C 1437.6 137, 1490.4 137, 1497 137 C 1504 137, 1560 138, 1567 138 C 1574.8 138, 1637.2 135, 1645 135 C 1652.4 135, 1711.6 106, 1719 106 C 1723.1 106, 1755.9 140, 1760 140 C 1764 140, 1796 102, 1800 102 C 1807.5 102, 1867.5 104, 1875 104 C 1880.2 104, 1921.8 137, 1927 137 L 1970 122 L 1970 922 Z"></path>
    <path fill="#d48568" stroke="#d48568"
          d="M -50 922 L -58 139 C -51.2 139, 3.2 126, 10 126 C 16.2 126, 65.8 158, 72 158 C 76.1 158, 108.9 124, 113 124 C 120.7 124, 182.3 129, 190 129 C 196.5 129, 248.5 149, 255 149 C 259.5 149, 295.5 154, 300 154 C 305.4 154, 348.6 154, 354 154 C 358.9 154, 398.1 127, 403 127 C 407.5 127, 443.5 153, 448 153 C 453.5 153, 497.5 159, 503 159 C 507 159, 539 158, 543 158 C 548.8 158, 595.2 156, 601 156 C 608.5 156, 668.5 119, 676 119 C 681.1 119, 721.9 157, 727 157 C 734.2 157, 791.8 157, 799 157 C 804 157, 844 152, 849 152 C 853.7 152, 891.3 123, 896 123 C 902.3 123, 952.7 151, 959 151 C 966.2 151, 1023.8 150, 1031 150 C 1035.8 150, 1074.2 121, 1079 121 C 1084.7 121, 1130.3 128, 1136 128 C 1141.8 128, 1188.2 159, 1194 159 C 1200.8 159, 1255.2 119, 1262 119 C 1266.9 119, 1306.1 121, 1311 121 C 1315.3 121, 1349.7 157, 1354 157 C 1358.4 157, 1393.6 120, 1398 120 C 1404.4 120, 1455.6 150, 1462 150 C 1467.6 150, 1512.4 125, 1518 125 C 1524.1 125, 1572.9 158, 1579 158 C 1585.1 158, 1633.9 153, 1640 153 C 1645.7 153, 1691.3 151, 1697 151 C 1701.2 151, 1734.8 123, 1739 123 C 1745.9 123, 1801.1 150, 1808 150 C 1812 150, 1844 157, 1848 157 C 1854.1 157, 1902.9 153, 1909 153 C 1914.5 153, 1958.5 150, 1964 150 L 1970 139 L 1970 922 Z"></path>
    <path fill="#d18168" stroke="#d18168"
          d="M -50 922 L -59 156 C -52 156, 4 142, 11 142 C 18.8 142, 81.2 136, 89 136 C 93.7 136, 131.3 142, 136 142 C 143.2 142, 200.8 143, 208 143 C 215 143, 271 145, 278 145 C 282.8 145, 321.2 138, 326 138 C 333 138, 389 171, 396 171 C 402.6 171, 455.4 142, 462 142 C 468.3 142, 518.7 170, 525 170 C 531.2 170, 580.8 146, 587 146 C 592.9 146, 640.1 140, 646 140 C 650.7 140, 688.3 140, 693 140 C 697.4 140, 732.6 139, 737 139 C 741.1 139, 773.9 143, 778 143 C 783 143, 823 173, 828 173 C 834.6 173, 887.4 143, 894 143 C 898.7 143, 936.3 143, 941 143 C 946.2 143, 987.8 139, 993 139 C 999.5 139, 1051.5 176, 1058 176 C 1062.8 176, 1101.2 139, 1106 139 C 1113.9 139, 1177.1 138, 1185 138 C 1190.8 138, 1237.2 142, 1243 142 C 1248.4 142, 1291.6 140, 1297 140 C 1302.8 140, 1349.2 171, 1355 171 C 1361.8 171, 1416.2 173, 1423 173 C 1430.9 173, 1494.1 176, 1502 176 C 1507.7 176, 1553.3 145, 1559 145 C 1564.7 145, 1610.3 168, 1616 168 C 1622.7 168, 1676.3 174, 1683 174 C 1688.5 174, 1732.5 174, 1738 174 C 1745.1 174, 1801.9 176, 1809 176 C 1815.4 176, 1866.6 141, 1873 141 C 1877.6 141, 1914.4 174, 1919 174 C 1925.1 174, 1973.9 143, 1980 143 L 1970 156 L 1970 922 Z"></path>
    <path fill="#ce7d68" stroke="#ce7d68"
          d="M -50 922 L -60 174 C -54.4 174, -9.6 193, -4 193 C 3.4000000000000004 193, 62.6 185, 70 185 C 75.7 185, 121.3 194, 127 194 C 132.9 194, 180.1 185, 186 185 C 192.7 185, 246.3 188, 253 188 C 260.1 188, 316.9 193, 324 193 C 330.5 193, 382.5 186, 389 186 C 394.1 186, 434.9 158, 440 158 C 445.2 158, 486.8 193, 492 193 C 498.8 193, 553.2 156, 560 156 C 566.5 156, 618.5 194, 625 194 C 630.6 194, 675.4 160, 681 160 C 687.4 160, 738.6 160, 745 160 C 752.7 160, 814.3 162, 822 162 C 826 162, 858 186, 862 186 C 866.3 186, 900.7 191, 905 191 C 912.5 191, 972.5 189, 980 189 C 987.7 189, 1049.3 155, 1057 155 C 1062.7 155, 1108.3 190, 1114 190 C 1120 190, 1168 154, 1174 154 C 1178.3 154, 1212.7 159, 1217 159 C 1221.5 159, 1257.5 192, 1262 192 C 1268.2 192, 1317.8 192, 1324 192 C 1328.6 192, 1365.4 157, 1370 157 C 1377.5 157, 1437.5 162, 1445 162 C 1449.7 162, 1487.3 164, 1492 164 C 1497.5 164, 1541.5 154, 1547 154 C 1552.2 154, 1593.8 154, 1599 154 C 1606.6 154, 1667.4 162, 1675 162 C 1680.3 162, 1722.7 192, 1728 192 C 1733.4 192, 1776.6 185, 1782 185 C 1786.9 185, 1826.1 185, 1831 185 C 1838.3 185, 1896.7 188, 1904 188 C 1908.9 188, 1948.1 187, 1953 187 L 1970 174 L 1970 922 Z"></path>
    <path fill="#ca7868" stroke="#ca7868"
          d="M -50 922 L -61 191 C -53.6 191, 5.6 180, 13 180 C 17.8 180, 56.2 174, 61 174 C 65.5 174, 101.5 179, 106 179 C 112.2 179, 161.8 174, 168 174 C 172.8 174, 211.2 203, 216 203 C 223.9 203, 287.1 201, 295 201 C 299.9 201, 339.1 205, 344 205 C 351.1 205, 407.9 176, 415 176 C 419.3 176, 453.7 205, 458 205 C 465.3 205, 523.7 204, 531 204 C 535.8 204, 574.2 177, 579 177 C 586 177, 642 205, 649 205 C 654.1 205, 694.9 178, 700 178 C 705.6 178, 750.4 180, 756 180 C 763.4 180, 822.6 204, 830 204 C 834.6 204, 871.4 207, 876 207 C 883.3 207, 941.7 181, 949 181 C 955.8 181, 1010.2 203, 1017 203 C 1021.1 203, 1053.9 205, 1058 205 C 1065.5 205, 1125.5 176, 1133 176 C 1138.2 176, 1179.8 174, 1185 174 C 1191.8 174, 1246.2 180, 1253 180 C 1259.6 180, 1312.4 172, 1319 172 C 1324.3 172, 1366.7 203, 1372 203 C 1379.8 203, 1442.2 211, 1450 211 C 1455.6 211, 1500.4 177, 1506 177 C 1511.7 177, 1557.3 205, 1563 205 C 1570.2 205, 1627.8 210, 1635 210 C 1639.4 210, 1674.6 178, 1679 178 C 1683.8 178, 1722.2 203, 1727 203 C 1731.6 203, 1768.4 180, 1773 180 C 1780.1 180, 1836.9 175, 1844 175 C 1848.3 175, 1882.7 179, 1887 179 C 1894.9 179, 1958.1 208, 1966 208 L 1970 191 L 1970 922 Z"></path>
    <path fill="#c67468" stroke="#c67468"
          d="M -50 922 L -62 209 C -55.3 209, -1.7000000000000002 227, 5 227 C 10.4 227, 53.6 227, 59 227 C 64.6 227, 109.4 229, 115 229 C 119.1 229, 151.9 191, 156 191 C 161.5 191, 205.5 195, 211 195 C 215.1 195, 247.9 198, 252 198 C 257.8 198, 304.2 220, 310 220 C 317.2 220, 374.8 224, 382 224 C 386.1 224, 418.9 224, 423 224 C 430.3 224, 488.7 226, 496 226 C 501.1 226, 541.9 194, 547 194 C 552.9 194, 600.1 226, 606 226 C 611.7 226, 657.3 192, 663 192 C 667.8 192, 706.2 221, 711 221 C 717.1 221, 765.9 191, 772 191 C 776.6 191, 813.4 198, 818 198 C 824 198, 872 197, 878 197 C 884.3 197, 934.7 222, 941 222 C 945.8 222, 984.2 224, 989 224 C 993.1 224, 1025.9 196, 1030 196 C 1035.8 196, 1082.2 229, 1088 229 C 1095.4 229, 1154.6 225, 1162 225 C 1169.4 225, 1228.6 194, 1236 194 C 1240 194, 1272 220, 1276 220 C 1280.5 220, 1316.5 195, 1321 195 C 1326.8 195, 1373.2 222, 1379 222 C 1383.9 222, 1423.1 224, 1428 224 C 1433.5 224, 1477.5 199, 1483 199 C 1489.5 199, 1541.5 197, 1548 197 C 1553.6 197, 1598.4 220, 1604 220 C 1610.7 220, 1664.3 221, 1671 221 C 1678.8 221, 1741.2 194, 1749 194 C 1754.1 194, 1794.9 224, 1800 224 C 1807.8 224, 1870.2 195, 1878 195 C 1884.7 195, 1938.3 223, 1945 223 L 1970 209 L 1970 922 Z"></path>
    <path fill="#c27068" stroke="#c27068"
          d="M -50 922 L -63 226 C -56.5 226, -4.5 237, 2 237 C 7.2 237, 48.8 240, 54 240 C 61.4 240, 120.6 213, 128 213 C 135.3 213, 193.7 207, 201 207 C 208.2 207, 265.8 243, 273 243 C 278.3 243, 320.7 214, 326 214 C 330.6 214, 367.4 208, 372 208 C 377.8 208, 424.2 244, 430 244 C 434.6 244, 471.4 238, 476 238 C 482.4 238, 533.6 215, 540 215 C 545.3 215, 587.7 209, 593 209 C 597.4 209, 632.6 240, 637 240 C 643.6 240, 696.4 214, 703 214 C 708 214, 748 246, 753 246 C 757.1 246, 789.9 244, 794 244 C 799.6 244, 844.4 237, 850 237 C 855.2 237, 896.8 209, 902 209 C 906.4 209, 941.6 209, 946 209 C 952 209, 1000 206, 1006 206 C 1013.3 206, 1071.7 212, 1079 212 C 1085.8 212, 1140.2 243, 1147 243 C 1152.3 243, 1194.7 211, 1200 211 C 1207.6 211, 1268.4 237, 1276 237 C 1283.8 237, 1346.2 236, 1354 236 C 1358.8 236, 1397.2 213, 1402 213 C 1408.2 213, 1457.8 215, 1464 215 C 1470.4 215, 1521.6 215, 1528 215 C 1533.3 215, 1575.7 244, 1581 244 C 1588.9 244, 1652.1 242, 1660 242 C 1664.4 242, 1699.6 246, 1704 246 C 1709.7 246, 1755.3 210, 1761 210 C 1766 210, 1806 246, 1811 246 C 1818.6 246, 1879.4 241, 1887 241 C 1892 241, 1932 236, 1937 236 L 1970 226 L 1970 922 Z"></path>
    <path fill="#be6c68" stroke="#be6c68"
          d="M -50 922 L -64 244 C -59.5 244, -23.5 229, -19 229 C -12.1 229, 43.1 233, 50 233 C 57.6 233, 118.4 234, 126 234 C 131.9 234, 179.1 258, 185 258 C 192.8 258, 255.2 232, 263 232 C 269.8 232, 324.2 232, 331 232 C 336.2 232, 377.8 263, 383 263 C 387.9 263, 427.1 258, 432 258 C 436.9 258, 476.1 227, 481 227 C 485.7 227, 523.3 225, 528 225 C 532.5 225, 568.5 229, 573 229 C 577 229, 609 233, 613 233 C 620.9 233, 684.1 264, 692 264 C 696.7 264, 734.3 260, 739 260 C 744.3 260, 786.7 224, 792 224 C 799 224, 855 224, 862 224 C 869.9 224, 933.1 261, 941 261 C 947.5 261, 999.5 230, 1006 230 C 1012 230, 1060 260, 1066 260 C 1073.2 260, 1130.8 258, 1138 258 C 1145.6 258, 1206.4 257, 1214 257 C 1220.3 257, 1270.7 260, 1277 260 C 1283 260, 1331 264, 1337 264 C 1342.8 264, 1389.2 256, 1395 256 C 1401.7 256, 1455.3 233, 1462 233 C 1469.7 233, 1531.3 263, 1539 263 C 1545.1 263, 1593.9 229, 1600 229 C 1606.5 229, 1658.5 256, 1665 256 C 1671 256, 1719 232, 1725 232 C 1732.1 232, 1788.9 259, 1796 259 C 1803.7 259, 1865.3 262, 1873 262 C 1880.4 262, 1939.6 262, 1947 262 L 1970 244 L 1970 922 Z"></path>
    <path fill="#ba6968" stroke="#ba6968"
          d="M -50 922 L -65 261 C -59.4 261, -14.6 275, -9 275 C -4.4 275, 32.4 278, 37 278 C 44.9 278, 108.1 277, 116 277 C 120.5 277, 156.5 244, 161 244 C 168.3 244, 226.7 244, 234 244 C 240.2 244, 289.8 249, 296 249 C 301.5 249, 345.5 251, 351 251 C 356.5 251, 400.5 279, 406 279 C 413.4 279, 472.6 280, 480 280 C 485.3 280, 527.7 281, 533 281 C 537.4 281, 572.6 274, 577 274 C 583.7 274, 637.3 246, 644 246 C 651.4 246, 710.6 245, 718 245 C 725.3 245, 783.7 275, 791 275 C 796.8 275, 843.2 271, 849 271 C 856.7 271, 918.3 276, 926 276 C 931.1 276, 971.9 242, 977 242 C 981.8 242, 1020.2 274, 1025 274 C 1030.5 274, 1074.5 272, 1080 272 C 1084.1 272, 1116.9 250, 1121 250 C 1128.3 250, 1186.7 242, 1194 242 C 1200.3 242, 1250.7 244, 1257 244 C 1264 244, 1320 244, 1327 244 C 1332.2 244, 1373.8 250, 1379 250 C 1385.9 250, 1441.1 251, 1448 251 C 1452.5 251, 1488.5 245, 1493 245 C 1499.1 245, 1547.9 251, 1554 251 C 1560.5 251, 1612.5 246, 1619 246 C 1626.6 246, 1687.4 248, 1695 248 C 1702.1 248, 1758.9 251, 1766 251 C 1773.1 251, 1829.9 246, 1837 246 C 1841.1 246, 1873.9 274, 1878 274 C 1884.8 274, 1939.2 279, 1946 279 L 1970 261 L 1970 922 Z"></path>
    <path fill="#b56568" stroke="#b56568"
          d="M -50 922 L -66 279 C -59.9 279, -11.1 293, -5 293 C 2.5 293, 62.5 261, 70 261 C 77.9 261, 141.1 260, 149 260 C 153.6 260, 190.4 295, 195 295 C 199.6 295, 236.4 266, 241 266 C 247.7 266, 301.3 295, 308 295 C 315.6 295, 376.4 259, 384 259 C 389.8 259, 436.2 264, 442 264 C 446.5 264, 482.5 291, 487 291 C 491.9 291, 531.1 297, 536 297 C 543 297, 599 298, 606 298 C 612.6 298, 665.4 292, 672 292 C 679.6 292, 740.4 299, 748 299 C 752.9 299, 792.1 299, 797 299 C 802.9 299, 850.1 294, 856 294 C 862.6 294, 915.4 267, 922 267 C 926.9 267, 966.1 263, 971 263 C 977.3 263, 1027.7 268, 1034 268 C 1041.3 268, 1099.7 292, 1107 292 C 1112.9 292, 1160.1 261, 1166 261 C 1173.5 261, 1233.5 264, 1241 264 C 1245.1 264, 1277.9 296, 1282 296 C 1288.5 296, 1340.5 264, 1347 264 C 1354.6 264, 1415.4 263, 1423 263 C 1427.1 263, 1459.9 297, 1464 297 C 1470.7 297, 1524.3 299, 1531 299 C 1537 299, 1585 267, 1591 267 C 1595.7 267, 1633.3 296, 1638 296 C 1643.6 296, 1688.4 265, 1694 265 C 1701.8 265, 1764.2 298, 1772 298 C 1776 298, 1808 298, 1812 298 C 1816.2 298, 1849.8 297, 1854 297 C 1860.9 297, 1916.1 290, 1923 290 L 1970 279 L 1970 922 Z"></path>
    <path fill="#b06167" stroke="#b06167"
          d="M -50 922 L -67 296 C -59.2 296, 3.2 313, 11 313 C 17.3 313, 67.7 310, 74 310 C 78.4 310, 113.6 285, 118 285 C 124.2 285, 173.8 276, 180 276 C 187.4 276, 246.6 279, 254 279 C 259.9 279, 307.1 315, 313 315 C 319.7 315, 373.3 283, 380 283 C 385.6 283, 430.4 279, 436 279 C 440.8 279, 479.2 281, 484 281 C 490.4 281, 541.6 309, 548 309 C 553.2 309, 594.8 277, 600 277 C 605 277, 645 313, 650 313 C 656.7 313, 710.3 315, 717 315 C 721.2 315, 754.8 279, 759 279 C 765.2 279, 814.8 280, 821 280 C 828.3 280, 886.7 307, 894 307 C 901 307, 957 315, 964 315 C 968 315, 1000 276, 1004 276 C 1010.6 276, 1063.4 277, 1070 277 C 1077.5 277, 1137.5 313, 1145 313 C 1149.6 313, 1186.4 282, 1191 282 C 1197.6 282, 1250.4 281, 1257 281 C 1264.8 281, 1327.2 309, 1335 309 C 1340.4 309, 1383.6 314, 1389 314 C 1395.3 314, 1445.7 278, 1452 278 C 1456.7 278, 1494.3 312, 1499 312 C 1504.5 312, 1548.5 277, 1554 277 C 1558.3 277, 1592.7 279, 1597 279 C 1601.2 279, 1634.8 311, 1639 311 C 1646.8 311, 1709.2 281, 1717 281 C 1723.5 281, 1775.5 316, 1782 316 C 1789.3 316, 1847.7 313, 1855 313 C 1859.5 313, 1895.5 284, 1900 284 C 1906.6 284, 1959.4 312, 1966 312 L 1970 296 L 1970 922 Z"></path>
    <path fill="#ac5e67" stroke="#ac5e67"
          d="M -50 922 L -68 313 C -60.6 313, -1.4000000000000004 300, 6 300 C 10.7 300, 48.3 330, 53 330 C 57.5 330, 93.5 301, 98 301 C 105.5 301, 165.5 301, 173 301 C 178.1 301, 218.9 332, 224 332 C 228 332, 260 329, 264 329 C 271.3 329, 329.7 327, 337 327 C 343.3 327, 393.7 331, 400 331 C 407.8 331, 470.2 299, 478 299 C 484.5 299, 536.5 301, 543 301 C 548.5 301, 592.5 331, 598 331 C 603.6 331, 648.4 303, 654 303 C 660.5 303, 712.5 328, 719 328 C 723.2 328, 756.8 332, 761 332 C 765.8 332, 804.2 325, 809 325 C 816.6 325, 877.4 333, 885 333 C 892.6 333, 953.4 301, 961 301 C 965.8 301, 1004.2 328, 1009 328 C 1015.8 328, 1070.2 297, 1077 297 C 1084.7 297, 1146.3 325, 1154 325 C 1159.8 325, 1206.2 324, 1212 324 C 1218.8 324, 1273.2 297, 1280 297 C 1286 297, 1334 296, 1340 296 C 1347.6 296, 1408.4 301, 1416 301 C 1420.8 301, 1459.2 331, 1464 331 C 1468 331, 1500 295, 1504 295 C 1509.2 295, 1550.8 323, 1556 323 C 1560.5 323, 1596.5 293, 1601 293 C 1607.8 293, 1662.2 332, 1669 332 C 1676.3 332, 1734.7 294, 1742 294 C 1746.2 294, 1779.8 293, 1784 293 C 1790.3 293, 1840.7 297, 1847 297 C 1853.1 297, 1901.9 324, 1908 324 C 1913.2 324, 1954.8 325, 1960 325 L 1970 313 L 1970 922 Z"></path>
    <path fill="#a75b67" stroke="#a75b67"
          d="M -50 922 L -69 331 C -62.4 331, -9.6 350, -3 350 C 1.9000000000000004 350, 41.1 311, 46 311 C 52.6 311, 105.4 350, 112 350 C 118.7 350, 172.3 314, 179 314 C 184.3 314, 226.7 315, 232 315 C 237.1 315, 277.9 347, 283 347 C 288.3 347, 330.7 344, 336 344 C 340.8 344, 379.2 348, 384 348 C 390.6 348, 443.4 348, 450 348 C 457.9 348, 521.1 343, 529 343 C 534.2 343, 575.8 311, 581 311 C 588 311, 644 349, 651 349 C 656.6 349, 701.4 315, 707 315 C 713.1 315, 761.9 345, 768 345 C 772.1 345, 804.9 347, 809 347 C 815 347, 863 341, 869 341 C 874.3 341, 916.7 320, 922 320 C 926.5 320, 962.5 344, 967 344 C 973.8 344, 1028.2 319, 1035 319 C 1039.3 319, 1073.7 345, 1078 345 C 1084.2 345, 1133.8 349, 1140 349 C 1147.6 349, 1208.4 347, 1216 347 C 1223.3 347, 1281.7 350, 1289 350 C 1295.2 350, 1344.8 349, 1351 349 C 1355.2 349, 1388.8 344, 1393 344 C 1399.5 344, 1451.5 345, 1458 345 C 1462.2 345, 1495.8 314, 1500 314 C 1505 314, 1545 319, 1550 319 C 1555.7 319, 1601.3 343, 1607 343 C 1614.8 343, 1677.2 347, 1685 347 C 1692.3 347, 1750.7 346, 1758 346 C 1762.9 346, 1802.1 351, 1807 351 C 1813.1 351, 1861.9 347, 1868 347 C 1875.3 347, 1933.7 317, 1941 317 L 1970 331 L 1970 922 Z"></path>
    <path fill="#a25866" stroke="#a25866"
          d="M -50 922 L -70 348 C -64.7 348, -22.3 359, -17 359 C -11.3 359, 34.3 367, 40 367 C 44.9 367, 84.1 362, 89 362 C 93.4 362, 128.6 368, 133 368 C 137.8 368, 176.2 359, 181 359 C 185 359, 217 330, 221 330 C 228 330, 284 360, 291 360 C 297.7 360, 351.3 334, 358 334 C 365.4 334, 424.6 337, 432 337 C 437.8 337, 484.2 363, 490 363 C 494.8 363, 533.2 336, 538 336 C 542.4 336, 577.6 328, 582 328 C 586.1 328, 618.9 366, 623 366 C 629.5 366, 681.5 334, 688 334 C 692.4 334, 727.6 329, 732 329 C 739.8 329, 802.2 334, 810 334 C 814.3 334, 848.7 332, 853 332 C 859.8 332, 914.2 362, 921 362 C 928.2 362, 985.8 364, 993 364 C 1000 364, 1056 336, 1063 336 C 1068.8 336, 1115.2 363, 1121 363 C 1127.6 363, 1180.4 333, 1187 333 C 1192.8 333, 1239.2 331, 1245 331 C 1252.9 331, 1316.1 361, 1324 361 C 1331.8 361, 1394.2 360, 1402 360 C 1409 360, 1465 328, 1472 328 C 1478.7 328, 1532.3 338, 1539 338 C 1544.7 338, 1590.3 360, 1596 360 C 1600.9 360, 1640.1 364, 1645 364 C 1651.8 364, 1706.2 366, 1713 366 C 1717 366, 1749 336, 1753 336 C 1760.7 336, 1822.3 331, 1830 331 C 1835.7 331, 1881.3 363, 1887 363 C 1893.3 363, 1943.7 366, 1950 366 L 1970 348 L 1970 922 Z"></path>
    <path fill="#9d5465" stroke="#9d5465"
          d="M -50 922 L -71 366 C -64.8 366, -15.2 382, -9 382 C -3 382, 45 386, 51 386 C 57.7 386, 111.3 355, 118 355 C 125 355, 181 355, 188 355 C 192.7 355, 230.3 355, 235 355 C 241.6 355, 294.4 349, 301 349 C 306.1 349, 346.9 385, 352 385 C 358.8 385, 413.2 347, 420 347 C 424.8 347, 463.2 383, 468 383 C 472 383, 504 384, 508 384 C 513 384, 553 348, 558 348 C 562.9 348, 602.1 354, 607 354 C 614.7 354, 676.3 347, 684 347 C 688.4 347, 723.6 379, 728 379 C 734.2 379, 783.8 380, 790 380 C 795.8 380, 842.2 382, 848 382 C 853.9 382, 901.1 353, 907 353 C 911.9 353, 951.1 382, 956 382 C 961.1 382, 1001.9 353, 1007 353 C 1013.4 353, 1064.6 348, 1071 348 C 1078.3 348, 1136.7 379, 1144 379 C 1148.5 379, 1184.5 346, 1189 346 C 1193.1 346, 1225.9 352, 1230 352 C 1234.2 352, 1267.8 348, 1272 348 C 1279.1 348, 1335.9 381, 1343 381 C 1349.9 381, 1405.1 353, 1412 353 C 1419.1 353, 1475.9 379, 1483 379 C 1488.2 379, 1529.8 377, 1535 377 C 1539.9 377, 1579.1 377, 1584 377 C 1589.4 377, 1632.6 379, 1638 379 C 1644.6 379, 1697.4 352, 1704 352 C 1709.8 352, 1756.2 347, 1762 347 C 1766.8 347, 1805.2 378, 1810 378 C 1817.3 378, 1875.7 383, 1883 383 C 1890.2 383, 1947.8 350, 1955 350 L 1970 366 L 1970 922 Z"></path>
    <path fill="#975165" stroke="#975165"
          d="M -50 922 L -72 383 C -67 383, -27 402, -22 402 C -14.7 402, 43.7 367, 51 367 C 55.6 367, 92.4 371, 97 371 C 101.7 371, 139.3 372, 144 372 C 150.8 372, 205.2 395, 212 395 C 217 395, 257 398, 262 398 C 267 398, 307 371, 312 371 C 318.1 371, 366.9 397, 373 397 C 377.5 397, 413.5 372, 418 372 C 423.3 372, 465.7 363, 471 363 C 478.5 363, 538.5 397, 546 397 C 553.9 397, 617.1 363, 625 363 C 630.1 363, 670.9 365, 676 365 C 682.5 365, 734.5 363, 741 363 C 746.8 363, 793.2 366, 799 366 C 804.1 366, 844.9 400, 850 400 C 857.3 400, 915.7 367, 923 367 C 928.9 367, 976.1 393, 982 393 C 989.1 393, 1045.9 365, 1053 365 C 1060.8 365, 1123.2 370, 1131 370 C 1136.1 370, 1176.9 365, 1182 365 C 1187.3 365, 1229.7 397, 1235 397 C 1242 397, 1298 399, 1305 399 C 1310.8 399, 1357.2 364, 1363 364 C 1370.5 364, 1430.5 401, 1438 401 C 1443.3 401, 1485.7 370, 1491 370 C 1496.9 370, 1544.1 400, 1550 400 C 1554.4 400, 1589.6 369, 1594 369 C 1601.6 369, 1662.4 372, 1670 372 C 1675.4 372, 1718.6 367, 1724 367 C 1729.6 367, 1774.4 366, 1780 366 C 1785.7 366, 1831.3 363, 1837 363 C 1842.4 363, 1885.6 402, 1891 402 C 1896.6 402, 1941.4 396, 1947 396 L 1970 383 L 1970 922 Z"></path>
    <path fill="#924f64" stroke="#924f64"
          d="M -50 922 L -73 401 C -67.1 401, -19.9 413, -14 413 C -7.2 413, 47.2 419, 54 419 C 60.7 419, 114.3 383, 121 383 C 128.7 383, 190.3 419, 198 419 C 202.4 419, 237.6 381, 242 381 C 248.7 381, 302.3 414, 309 414 C 315 414, 363 388, 369 388 C 375.4 388, 426.6 381, 433 381 C 440.5 381, 500.5 414, 508 414 C 514.9 414, 570.1 413, 577 413 C 583 413, 631 421, 637 421 C 641.7 421, 679.3 387, 684 387 C 688.6 387, 725.4 390, 730 390 C 736.3 390, 786.7 416, 793 416 C 797.9 416, 837.1 417, 842 417 C 846.5 417, 882.5 381, 887 381 C 894.4 381, 953.6 421, 961 421 C 968.8 421, 1031.2 417, 1039 417 C 1046.9 417, 1110.1 412, 1118 412 C 1125.4 412, 1184.6 390, 1192 390 C 1199.5 390, 1259.5 386, 1267 386 C 1274.1 386, 1330.9 419, 1338 419 C 1345.9 419, 1409.1 420, 1417 420 C 1423.8 420, 1478.2 381, 1485 381 C 1490 381, 1530 387, 1535 387 C 1541.4 387, 1592.6 386, 1599 386 C 1603.9 386, 1643.1 390, 1648 390 C 1653 390, 1693 385, 1698 385 C 1702.1 385, 1734.9 419, 1739 419 C 1743.2 419, 1776.8 391, 1781 391 C 1788.3 391, 1846.7 388, 1854 388 C 1859.2 388, 1900.8 387, 1906 387 C 1910.5 387, 1946.5 391, 1951 391 L 1970 401 L 1970 922 Z"></path>
    <path fill="#8d4c63" stroke="#8d4c63"
          d="M -50 922 L -74 418 C -66.1 418, -2.9000000000000004 438, 5 438 C 9 438, 41 401, 45 401 C 52 401, 108 399, 115 399 C 122.9 399, 186.1 438, 194 438 C 200.7 438, 254.3 398, 261 398 C 267.6 398, 320.4 438, 327 438 C 334.3 438, 392.7 436, 400 436 C 406.4 436, 457.6 404, 464 404 C 468.2 404, 501.8 399, 506 399 C 513 399, 569 436, 576 436 C 582.1 436, 630.9 399, 637 399 C 643.2 399, 692.8 431, 699 431 C 706.8 431, 769.2 435, 777 435 C 783.4 435, 834.6 400, 841 400 C 848.6 400, 909.4 430, 917 430 C 921.8 430, 960.2 434, 965 434 C 969.1 434, 1001.9 434, 1006 434 C 1012.5 434, 1064.5 404, 1071 404 C 1077.2 404, 1126.8 407, 1133 407 C 1138.2 407, 1179.8 437, 1185 437 C 1191.5 437, 1243.5 403, 1250 403 C 1256.3 403, 1306.7 401, 1313 401 C 1320.8 401, 1383.2 433, 1391 433 C 1397.2 433, 1446.8 435, 1453 435 C 1457.7 435, 1495.3 432, 1500 432 C 1507.3 432, 1565.7 432, 1573 432 C 1580.5 432, 1640.5 434, 1648 434 C 1652.6 434, 1689.4 403, 1694 403 C 1701.5 403, 1761.5 434, 1769 434 C 1773.8 434, 1812.2 433, 1817 433 C 1822 433, 1862 438, 1867 438 C 1872.8 438, 1919.2 403, 1925 403 L 1970 418 L 1970 922 Z"></path>
    <path fill="#874962" stroke="#874962"
          d="M -50 922 L -75 436 C -70.6 436, -35.4 453, -31 453 C -26.6 453, 8.6 456, 13 456 C 18 456, 58 423, 63 423 C 69.9 423, 125.1 450, 132 450 C 137 450, 177 454, 182 454 C 187.5 454, 231.5 451, 237 451 C 241 451, 273 452, 277 452 C 282.9 452, 330.1 418, 336 418 C 343.2 418, 400.8 449, 408 449 C 413.3 449, 455.7 421, 461 421 C 468.9 421, 532.1 416, 540 416 C 547.9 416, 611.1 418, 619 418 C 625.4 418, 676.6 426, 683 426 C 689.9 426, 745.1 451, 752 451 C 757.6 451, 802.4 424, 808 424 C 813.1 424, 853.9 448, 859 448 C 864.8 448, 911.2 453, 917 453 C 922.6 453, 967.4 425, 973 425 C 980.8 425, 1043.2 417, 1051 417 C 1055.4 417, 1090.6 455, 1095 455 C 1101.3 455, 1151.7 422, 1158 422 C 1165.6 422, 1226.4 422, 1234 422 C 1239.4 422, 1282.6 448, 1288 448 C 1294.8 448, 1349.2 423, 1356 423 C 1361.5 423, 1405.5 418, 1411 418 C 1416.7 418, 1462.3 448, 1468 448 C 1475.1 448, 1531.9 421, 1539 421 C 1544.6 421, 1589.4 453, 1595 453 C 1602.6 453, 1663.4 418, 1671 418 C 1675.8 418, 1714.2 422, 1719 422 C 1724.4 422, 1767.6 448, 1773 448 C 1778.9 448, 1826.1 456, 1832 456 C 1837.9 456, 1885.1 448, 1891 448 C 1898.4 448, 1957.6 417, 1965 417 L 1970 436 L 1970 922 Z"></path>
    <path fill="#824661" stroke="#824661"
          d="M -50 922 L -76 453 C -68.8 453, -11.2 469, -4 469 C 0.5999999999999996 469, 37.4 470, 42 470 C 49.8 470, 112.2 443, 120 443 C 124.2 443, 157.8 470, 162 470 C 166.1 470, 198.9 472, 203 472 C 210.7 472, 272.3 438, 280 438 C 285.7 438, 331.3 470, 337 470 C 342.1 470, 382.9 472, 388 472 C 395.9 472, 459.1 464, 467 464 C 472 464, 512 470, 517 470 C 522.5 470, 566.5 467, 572 467 C 578.9 467, 634.1 463, 641 463 C 647.9 463, 703.1 436, 710 436 C 714.7 436, 752.3 465, 757 465 C 763.6 465, 816.4 465, 823 465 C 828.7 465, 874.3 469, 880 469 C 886 469, 934 466, 940 466 C 946.5 466, 998.5 464, 1005 464 C 1010.4 464, 1053.6 440, 1059 440 C 1065.1 440, 1113.9 441, 1120 441 C 1125 441, 1165 464, 1170 464 C 1176 464, 1224 467, 1230 467 C 1234.8 467, 1273.2 468, 1278 468 C 1283.1 468, 1323.9 435, 1329 435 C 1334.9 435, 1382.1 437, 1388 437 C 1395.2 437, 1452.8 441, 1460 441 C 1464.4 441, 1499.6 466, 1504 466 C 1510.5 466, 1562.5 470, 1569 470 C 1576.2 470, 1633.8 473, 1641 473 C 1647.7 473, 1701.3 439, 1708 439 C 1715.2 439, 1772.8 441, 1780 441 C 1784.4 441, 1819.6 433, 1824 433 C 1829.9 433, 1877.1 440, 1883 440 C 1888.4 440, 1931.6 468, 1937 468 L 1970 453 L 1970 922 Z"></path>
    <path fill="#7c4460" stroke="#7c4460"
          d="M -50 922 L -77 470 C -70.1 470, -14.9 490, -8 490 C -0.20000000000000018 490, 62.2 453, 70 453 C 76.5 453, 128.5 483, 135 483 C 140.8 483, 187.2 460, 193 460 C 198.6 460, 243.4 485, 249 485 C 254.4 485, 297.6 483, 303 483 C 310.2 483, 367.8 459, 375 459 C 380 459, 420 481, 425 481 C 432.4 481, 491.6 485, 499 485 C 503.2 485, 536.8 490, 541 490 C 546.7 490, 592.3 460, 598 460 C 604.1 460, 652.9 487, 659 487 C 663.7 487, 701.3 451, 706 451 C 711.8 451, 758.2 490, 764 490 C 768.4 490, 803.6 490, 808 490 C 814.3 490, 864.7 451, 871 451 C 878.3 451, 936.7 451, 944 451 C 951.3 451, 1009.7 459, 1017 459 C 1021.1 459, 1053.9 453, 1058 453 C 1065 453, 1121 450, 1128 450 C 1135 450, 1191 457, 1198 457 C 1202.5 457, 1238.5 459, 1243 459 C 1248.6 459, 1293.4 450, 1299 450 C 1304.2 450, 1345.8 456, 1351 456 C 1356.9 456, 1404.1 487, 1410 487 C 1414.6 487, 1451.4 457, 1456 457 C 1463.4 457, 1522.6 457, 1530 457 C 1534 457, 1566 480, 1570 480 C 1576.3 480, 1626.7 482, 1633 482 C 1639.8 482, 1694.2 450, 1701 450 C 1707.3 450, 1757.7 483, 1764 483 C 1770.3 483, 1820.7 453, 1827 453 C 1834.4 453, 1893.6 456, 1901 456 C 1907.2 456, 1956.8 485, 1963 485 L 1970 470 L 1970 922 Z"></path>
    <path fill="#77415f" stroke="#77415f"
          d="M -50 922 L -78 488 C -73 488, -33 468, -28 468 C -20.2 468, 42.2 506, 50 506 C 55.6 506, 100.4 468, 106 468 C 110.6 468, 147.4 508, 152 508 C 157.5 508, 201.5 507, 207 507 C 213.4 507, 264.6 499, 271 499 C 277.1 499, 325.9 470, 332 470 C 336.9 470, 376.1 500, 381 500 C 387.4 500, 438.6 472, 445 472 C 449.2 472, 482.8 505, 487 505 C 491 505, 523 507, 527 507 C 533.4 507, 584.6 471, 591 471 C 596.3 471, 638.7 500, 644 500 C 649.5 500, 693.5 475, 699 475 C 704.6 475, 749.4 468, 755 468 C 759.8 468, 798.2 478, 803 478 C 810.6 478, 871.4 474, 879 474 C 884.4 474, 927.6 504, 933 504 C 938.4 504, 981.6 505, 987 505 C 992.8 505, 1039.2 472, 1045 472 C 1050.3 472, 1092.7 472, 1098 472 C 1104.1 472, 1152.9 500, 1159 500 C 1163.3 500, 1197.7 471, 1202 471 C 1207.6 471, 1252.4 505, 1258 505 C 1264.4 505, 1315.6 500, 1322 500 C 1329.1 500, 1385.9 503, 1393 503 C 1398.3 503, 1440.7 498, 1446 498 C 1453.8 498, 1516.2 476, 1524 476 C 1531.5 476, 1591.5 470, 1599 470 C 1606.4 470, 1665.6 501, 1673 501 C 1678.9 501, 1726.1 468, 1732 468 C 1736.3 468, 1770.7 502, 1775 502 C 1781.1 502, 1829.9 470, 1836 470 C 1842.1 470, 1890.9 478, 1897 478 C 1901.1 478, 1933.9 506, 1938 506 L 1970 488 L 1970 922 Z"></path>
    <path fill="#713f5d" stroke="#713f5d"
          d="M -50 922 L -79 505 C -73.8 505, -32.2 490, -27 490 C -19.5 490, 40.5 522, 48 522 C 53.6 522, 98.4 515, 104 515 C 111 515, 167 489, 174 489 C 178.7 489, 216.3 487, 221 487 C 226.4 487, 269.6 494, 275 494 C 282.9 494, 346.1 491, 354 491 C 360.6 491, 413.4 519, 420 519 C 426.9 519, 482.1 516, 489 516 C 494.3 516, 536.7 489, 542 489 C 547.5 489, 591.5 520, 597 520 C 604.3 520, 662.7 488, 670 488 C 677.2 488, 734.8 493, 742 493 C 746.6 493, 783.4 491, 788 491 C 793.1 491, 833.9 487, 839 487 C 843.2 487, 876.8 521, 881 521 C 887.1 521, 935.9 519, 942 519 C 947.8 519, 994.2 491, 1000 491 C 1007.9 491, 1071.1 520, 1079 520 C 1083.5 520, 1119.5 491, 1124 491 C 1131.7 491, 1193.3 517, 1201 517 C 1207.9 517, 1263.1 491, 1270 491 C 1274.4 491, 1309.6 518, 1314 518 C 1318.6 518, 1355.4 487, 1360 487 C 1364.3 487, 1398.7 490, 1403 490 C 1410.5 490, 1470.5 518, 1478 518 C 1484.4 518, 1535.6 490, 1542 490 C 1546.1 490, 1578.9 521, 1583 521 C 1587.7 521, 1625.3 523, 1630 523 C 1637.2 523, 1694.8 492, 1702 492 C 1709.3 492, 1767.7 517, 1775 517 C 1780.6 517, 1825.4 524, 1831 524 C 1835.5 524, 1871.5 492, 1876 492 C 1882.7 492, 1936.3 490, 1943 490 L 1970 505 L 1970 922 Z"></path>
    <path fill="#6b3c5b" stroke="#6b3c5b"
          d="M -50 922 L -80 523 C -74.8 523, -33.2 507, -28 507 C -20.7 507, 37.7 506, 45 506 C 50 506, 90 541, 95 541 C 100 541, 140 509, 145 509 C 149.2 509, 182.8 541, 187 541 C 193.1 541, 241.9 540, 248 540 C 253.1 540, 293.9 533, 299 533 C 304.9 533, 352.1 503, 358 503 C 363.9 503, 411.1 504, 417 504 C 423.4 504, 474.6 536, 481 536 C 485.9 536, 525.1 510, 530 510 C 535.7 510, 581.3 511, 587 511 C 594.7 511, 656.3 506, 664 506 C 668.8 506, 707.2 504, 712 504 C 717.3 504, 759.7 543, 765 543 C 771.8 543, 826.2 512, 833 512 C 839.3 512, 889.7 506, 896 506 C 900.4 506, 935.6 540, 940 540 C 944.9 540, 984.1 508, 989 508 C 996.4 508, 1055.6 505, 1063 505 C 1069.5 505, 1121.5 537, 1128 537 C 1134.1 537, 1182.9 509, 1189 509 C 1194.4 509, 1237.6 508, 1243 508 C 1250.8 508, 1313.2 513, 1321 513 C 1325.2 513, 1358.8 508, 1363 508 C 1368.3 508, 1410.7 542, 1416 542 C 1422.8 542, 1477.2 508, 1484 508 C 1490.9 508, 1546.1 539, 1553 539 C 1558.9 539, 1606.1 503, 1612 503 C 1617.6 503, 1662.4 512, 1668 512 C 1672.5 512, 1708.5 541, 1713 541 C 1719.1 541, 1767.9 503, 1774 503 C 1778.4 503, 1813.6 543, 1818 543 C 1822.7 543, 1860.3 509, 1865 509 C 1869 509, 1901 505, 1905 505 C 1911.2 505, 1960.8 536, 1967 536 L 1970 523 L 1970 922 Z"></path>
    <path fill="#653a5a" stroke="#653a5a"
          d="M -50 922 L -81 540 C -73.5 540, -13.5 528, -6 528 C -1.5 528, 34.5 553, 39 553 C 43.4 553, 78.6 553, 83 553 C 89.2 553, 138.8 551, 145 551 C 149.7 551, 187.3 522, 192 522 C 198.4 522, 249.6 560, 256 560 C 261.7 560, 307.3 526, 313 526 C 317.7 526, 355.3 558, 360 558 C 364.8 558, 403.2 520, 408 520 C 412.8 520, 451.2 529, 456 529 C 461.6 529, 506.4 556, 512 556 C 519.2 556, 576.8 528, 584 528 C 590.4 528, 641.6 529, 648 529 C 655.1 529, 711.9 520, 719 520 C 725.7 520, 779.3 526, 786 526 C 793.8 526, 856.2 523, 864 523 C 868.6 523, 905.4 525, 910 525 C 917.1 525, 973.9 559, 981 559 C 988.7 559, 1050.3 526, 1058 526 C 1065.7 526, 1127.3 521, 1135 521 C 1142.9 521, 1206.1 529, 1214 529 C 1220.9 529, 1276.1 528, 1283 528 C 1290.7 528, 1352.3 554, 1360 554 C 1366.7 554, 1420.3 524, 1427 524 C 1433.9 524, 1489.1 550, 1496 550 C 1501.8 550, 1548.2 523, 1554 523 C 1559 523, 1599 520, 1604 520 C 1608.9 520, 1648.1 521, 1653 521 C 1658.8 521, 1705.2 555, 1711 555 C 1718.4 555, 1777.6 551, 1785 551 C 1791.9 551, 1847.1 520, 1854 520 C 1861 520, 1917 529, 1924 529 L 1970 540 L 1970 922 Z"></path>
    <path fill="#603858" stroke="#603858"
          d="M -50 922 L -82 558 C -77.4 558, -40.6 545, -36 545 C -30.5 545, 13.5 545, 19 545 C 24.6 545, 69.4 539, 75 539 C 81.4 539, 132.6 577, 139 577 C 143.7 577, 181.3 572, 186 572 C 191.1 572, 231.9 568, 237 568 C 241.2 568, 274.8 576, 279 576 C 284.1 576, 324.9 539, 330 539 C 335.5 539, 379.5 577, 385 577 C 389.4 577, 424.6 538, 429 538 C 436.4 538, 495.6 570, 503 570 C 507.6 570, 544.4 574, 549 574 C 555.5 574, 607.5 545, 614 545 C 619 545, 659 538, 664 538 C 670.3 538, 720.7 569, 727 569 C 733.3 569, 783.7 541, 790 541 C 797.5 541, 857.5 572, 865 572 C 869.9 572, 909.1 569, 914 569 C 919.9 569, 967.1 575, 973 575 C 979.7 575, 1033.3 539, 1040 539 C 1044.6 539, 1081.4 570, 1086 570 C 1093.4 570, 1152.6 548, 1160 548 C 1166.4 548, 1217.6 542, 1224 542 C 1229.5 542, 1273.5 572, 1279 572 C 1283.1 572, 1315.9 569, 1320 569 C 1324.4 569, 1359.6 569, 1364 569 C 1369.8 569, 1416.2 568, 1422 568 C 1428.8 568, 1483.2 545, 1490 545 C 1496.9 545, 1552.1 570, 1559 570 C 1564.2 570, 1605.8 545, 1611 545 C 1616.2 545, 1657.8 574, 1663 574 C 1670.7 574, 1732.3 542, 1740 542 C 1745.7 542, 1791.3 578, 1797 578 C 1803.7 578, 1857.3 544, 1864 544 C 1871.6 544, 1932.4 547, 1940 547 L 1970 558 L 1970 922 Z"></path>
    <path fill="#5a3656" stroke="#5a3656"
          d="M -50 922 L -83 575 C -77.3 575, -31.7 589, -26 589 C -19 589, 37 562, 44 562 C 50.4 562, 101.6 595, 108 595 C 114.3 595, 164.7 562, 171 562 C 175.4 562, 210.6 560, 215 560 C 219.9 560, 259.1 556, 264 556 C 271.9 556, 335.1 558, 343 558 C 348.5 558, 392.5 585, 398 585 C 405.3 585, 463.7 555, 471 555 C 477.9 555, 533.1 588, 540 588 C 545.4 588, 588.6 586, 594 586 C 601.6 586, 662.4 590, 670 590 C 676.6 590, 729.4 555, 736 555 C 742.4 555, 793.6 561, 800 561 C 805.6 561, 850.4 555, 856 555 C 860 555, 892 557, 896 557 C 900.7 557, 938.3 559, 943 559 C 949.9 559, 1005.1 559, 1012 559 C 1017.8 559, 1064.2 594, 1070 594 C 1077.3 594, 1135.7 556, 1143 556 C 1148 556, 1188 591, 1193 591 C 1198.9 591, 1246.1 587, 1252 587 C 1258.9 587, 1314.1 565, 1321 565 C 1326.7 565, 1372.3 561, 1378 561 C 1383.8 561, 1430.2 587, 1436 587 C 1441.5 587, 1485.5 590, 1491 590 C 1495.5 590, 1531.5 564, 1536 564 C 1542.8 564, 1597.2 555, 1604 555 C 1609.2 555, 1650.8 595, 1656 595 C 1663.8 595, 1726.2 594, 1734 594 C 1739.7 594, 1785.3 561, 1791 561 C 1797.8 561, 1852.2 595, 1859 595 C 1864.3 595, 1906.7 586, 1912 586 C 1919.2 586, 1976.8 563, 1984 563 L 1970 575 L 1970 922 Z"></path>
    <path fill="#543354" stroke="#543354"
          d="M -50 922 L -84 592 C -76.5 592, -16.5 576, -9 576 C -4.6 576, 30.6 579, 35 579 C 39.8 579, 78.2 573, 83 573 C 87.9 573, 127.1 580, 132 580 C 139.3 580, 197.7 578, 205 578 C 212.2 578, 269.8 572, 277 572 C 283.7 572, 337.3 606, 344 606 C 348.4 606, 383.6 574, 388 574 C 393 574, 433 575, 438 575 C 444.5 575, 496.5 611, 503 611 C 508.8 611, 555.2 576, 561 576 C 565.9 576, 605.1 612, 610 612 C 614.9 612, 654.1 575, 659 575 C 665 575, 713 610, 719 610 C 724 610, 764 606, 769 606 C 774.7 606, 820.3 572, 826 572 C 831.9 572, 879.1 611, 885 611 C 890.2 611, 931.8 572, 937 572 C 942 572, 982 577, 987 577 C 993.3 577, 1043.7 578, 1050 578 C 1055.8 578, 1102.2 578, 1108 578 C 1114.8 578, 1169.2 572, 1176 572 C 1181 572, 1221 574, 1226 574 C 1231.6 574, 1276.4 610, 1282 610 C 1288.9 610, 1344.1 574, 1351 574 C 1356.9 574, 1404.1 612, 1410 612 C 1415 612, 1455 607, 1460 607 C 1466.6 607, 1519.4 609, 1526 609 C 1531.8 609, 1578.2 580, 1584 580 C 1591.8 580, 1654.2 607, 1662 607 C 1669.4 607, 1728.6 605, 1736 605 C 1743.3 605, 1801.7 602, 1809 602 C 1815.5 602, 1867.5 575, 1874 575 C 1880.1 575, 1928.9 574, 1935 574 L 1970 592 L 1970 922 Z"></path>
    <path fill="#4f3152" stroke="#4f3152"
          d="M -50 922 L -85 610 C -80.8 610, -47.2 595, -43 595 C -38.9 595, -6.1 600, -2 600 C 2.2 600, 35.8 598, 40 598 C 47.6 598, 108.4 594, 116 594 C 123.9 594, 187.1 595, 195 595 C 202.4 595, 261.6 626, 269 626 C 276.5 626, 336.5 624, 344 624 C 350.8 624, 405.2 592, 412 592 C 418.1 592, 466.9 622, 473 622 C 479.3 622, 529.7 627, 536 627 C 541.6 627, 586.4 594, 592 594 C 597.8 594, 644.2 597, 650 597 C 654 597, 686 624, 690 624 C 695.3 624, 737.7 597, 743 597 C 749 597, 797 596, 803 596 C 807.3 596, 841.7 624, 846 624 C 853.5 624, 913.5 622, 921 622 C 925.7 622, 963.3 590, 968 590 C 972.6 590, 1009.4 591, 1014 591 C 1019.6 591, 1064.4 626, 1070 626 C 1076.9 626, 1132.1 591, 1139 591 C 1146.6 591, 1207.4 630, 1215 630 C 1220.9 630, 1268.1 628, 1274 628 C 1280.1 628, 1328.9 622, 1335 622 C 1340.7 622, 1386.3 630, 1392 630 C 1398.5 630, 1450.5 591, 1457 591 C 1461.8 591, 1500.2 627, 1505 627 C 1509.8 627, 1548.2 592, 1553 592 C 1559.6 592, 1612.4 591, 1619 591 C 1626.9 591, 1690.1 621, 1698 621 C 1705.5 621, 1765.5 623, 1773 623 C 1777.6 623, 1814.4 591, 1819 591 C 1826.8 591, 1889.2 592, 1897 592 C 1902.4 592, 1945.6 599, 1951 599 L 1970 610 L 1970 922 Z"></path>
    <path fill="#492f4f" stroke="#492f4f"
          d="M -50 922 L -86 627 C -79.7 627, -29.3 647, -23 647 C -17.2 647, 29.2 639, 35 639 C 42.9 639, 106.1 638, 114 638 C 120.1 638, 168.9 611, 175 611 C 181.8 611, 236.2 617, 243 617 C 248.9 617, 296.1 612, 302 612 C 306.7 612, 344.3 616, 349 616 C 354.1 616, 394.9 642, 400 642 C 406.9 642, 462.1 609, 469 609 C 475.1 609, 523.9 643, 530 643 C 534.1 643, 566.9 609, 571 609 C 577.9 609, 633.1 612, 640 612 C 646.6 612, 699.4 607, 706 607 C 713 607, 769 638, 776 638 C 781.5 638, 825.5 640, 831 640 C 836.9 640, 884.1 642, 890 642 C 894.1 642, 926.9 610, 931 610 C 935.7 610, 973.3 614, 978 614 C 984.8 614, 1039.2 639, 1046 639 C 1051.2 639, 1092.8 641, 1098 641 C 1102.1 641, 1134.9 640, 1139 640 C 1146.4 640, 1205.6 608, 1213 608 C 1220.7 608, 1282.3 647, 1290 647 C 1294.4 647, 1329.6 607, 1334 607 C 1338.3 607, 1372.7 613, 1377 613 C 1384 613, 1440 639, 1447 639 C 1454.9 639, 1518.1 609, 1526 609 C 1533.9 609, 1597.1 646, 1605 646 C 1609.5 646, 1645.5 642, 1650 642 C 1655.9 642, 1703.1 617, 1709 617 C 1714.8 617, 1761.2 608, 1767 608 C 1774.9 608, 1838.1 608, 1846 608 C 1852 608, 1900 611, 1906 611 C 1910.1 611, 1942.9 610, 1947 610 L 1970 627 L 1970 922 Z"></path>
    <path fill="#442d4d" stroke="#442d4d"
          d="M -50 922 L -87 645 C -81.9 645, -41.1 659, -36 659 C -30.4 659, 14.4 657, 20 657 C 26.3 657, 76.7 625, 83 625 C 87.5 625, 123.5 665, 128 665 C 133.8 665, 180.2 664, 186 664 C 193.5 664, 253.5 661, 261 661 C 265.5 661, 301.5 628, 306 628 C 310.8 628, 349.2 625, 354 625 C 361.5 625, 421.5 630, 429 630 C 435.5 630, 487.5 631, 494 631 C 501.1 631, 557.9 626, 565 626 C 571 626, 619 656, 625 656 C 631.6 656, 684.4 656, 691 656 C 695.9 656, 735.1 627, 740 627 C 745 627, 785 634, 790 634 C 794.9 634, 834.1 657, 839 657 C 843.9 657, 883.1 626, 888 626 C 892.2 626, 925.8 656, 930 656 C 936.4 656, 987.6 659, 994 659 C 999.1 659, 1039.9 657, 1045 657 C 1051.4 657, 1102.6 661, 1109 661 C 1114.6 661, 1159.4 631, 1165 631 C 1169 631, 1201 659, 1205 659 C 1211.9 659, 1267.1 635, 1274 635 C 1280.7 635, 1334.3 633, 1341 633 C 1347.4 633, 1398.6 662, 1405 662 C 1410.9 662, 1458.1 630, 1464 630 C 1469.5 630, 1513.5 659, 1519 659 C 1524.5 659, 1568.5 627, 1574 627 C 1578.6 627, 1615.4 632, 1620 632 C 1624.5 632, 1660.5 665, 1665 665 C 1671.9 665, 1727.1 634, 1734 634 C 1738.1 634, 1770.9 630, 1775 630 C 1782.3 630, 1840.7 627, 1848 627 C 1855.7 627, 1917.3 658, 1925 658 L 1970 645 L 1970 922 Z"></path>
    <path fill="#3e2b4a" stroke="#3e2b4a"
          d="M -50 922 L -88 662 C -80.2 662, -17.8 643, -10 643 C -5 643, 35 682, 40 682 C 47.6 682, 108.4 675, 116 675 C 120.6 675, 157.4 644, 162 644 C 168.4 644, 219.6 649, 226 649 C 231.2 649, 272.8 648, 278 648 C 283.1 648, 323.9 679, 329 679 C 333.6 679, 370.4 676, 375 676 C 380.2 676, 421.8 676, 427 676 C 434.3 676, 492.7 647, 500 647 C 506.9 647, 562.1 680, 569 680 C 575.8 680, 630.2 649, 637 649 C 644.8 649, 707.2 648, 715 648 C 722.7 648, 784.3 642, 792 642 C 799.7 642, 861.3 676, 869 676 C 874.6 676, 919.4 676, 925 676 C 929.2 676, 962.8 650, 967 650 C 974.1 650, 1030.9 680, 1038 680 C 1042.7 680, 1080.3 647, 1085 647 C 1089.3 647, 1123.7 682, 1128 682 C 1135.2 682, 1192.8 679, 1200 679 C 1207.4 679, 1266.6 673, 1274 673 C 1279.3 673, 1321.7 679, 1327 679 C 1332.7 679, 1378.3 649, 1384 649 C 1391.2 649, 1448.8 673, 1456 673 C 1462.8 673, 1517.2 676, 1524 676 C 1528.1 676, 1560.9 672, 1565 672 C 1571.2 672, 1620.8 673, 1627 673 C 1634.3 673, 1692.7 646, 1700 646 C 1706.7 646, 1760.3 647, 1767 647 C 1771.5 647, 1807.5 645, 1812 645 C 1819.2 645, 1876.8 651, 1884 651 C 1889.6 651, 1934.4 681, 1940 681 L 1970 662 L 1970 922 Z"></path>
    <path fill="#392947" stroke="#392947"
          d="M -50 922 L -89 680 C -83.9 680, -43.1 700, -38 700 C -31.5 700, 20.5 695, 27 695 C 32.3 695, 74.7 667, 80 667 C 86.9 667, 142.1 661, 149 661 C 156.6 661, 217.4 660, 225 660 C 232.3 660, 290.7 695, 298 695 C 304.6 695, 357.4 691, 364 691 C 371.7 691, 433.3 692, 441 692 C 445.9 692, 485.1 668, 490 668 C 496 668, 544 663, 550 663 C 554.1 663, 586.9 665, 591 665 C 598.1 665, 654.9 666, 662 666 C 669.4 666, 728.6 694, 736 694 C 740.9 694, 780.1 668, 785 668 C 790.6 668, 835.4 662, 841 662 C 847.4 662, 898.6 691, 905 691 C 911.3 691, 961.7 663, 968 663 C 973.5 663, 1017.5 699, 1023 699 C 1030.3 699, 1088.7 696, 1096 696 C 1101.4 696, 1144.6 694, 1150 694 C 1157.7 694, 1219.3 700, 1227 700 C 1231.2 700, 1264.8 668, 1269 668 C 1276.4 668, 1335.6 700, 1343 700 C 1348.5 700, 1392.5 664, 1398 664 C 1404.1 664, 1452.9 669, 1459 669 C 1465.8 669, 1520.2 696, 1527 696 C 1533.4 696, 1584.6 663, 1591 663 C 1598.4 663, 1657.6 693, 1665 693 C 1672.6 693, 1733.4 698, 1741 698 C 1748.5 698, 1808.5 698, 1816 698 C 1823.2 698, 1880.8 693, 1888 693 C 1892 693, 1924 665, 1928 665 L 1970 680 L 1970 922 Z"></path>
    <path fill="#332645" stroke="#332645"
          d="M -50 922 L -90 697 C -84.5 697, -40.5 684, -35 684 C -29 684, 19 714, 25 714 C 29.9 714, 69.1 677, 74 677 C 79.3 677, 121.7 678, 127 678 C 134.1 678, 190.9 709, 198 709 C 203.1 709, 243.9 711, 249 711 C 255 711, 303 711, 309 711 C 314.2 711, 355.8 677, 361 677 C 366.6 677, 411.4 678, 417 678 C 424.9 678, 488.1 711, 496 711 C 503.4 711, 562.6 679, 570 679 C 576.3 679, 626.7 717, 633 717 C 638.7 717, 684.3 717, 690 717 C 697.8 717, 760.2 713, 768 713 C 774.4 713, 825.6 707, 832 707 C 836.4 707, 871.6 681, 876 681 C 881.9 681, 929.1 717, 935 717 C 939.9 717, 979.1 678, 984 678 C 988.2 678, 1021.8 717, 1026 717 C 1030.3 717, 1064.7 686, 1069 686 C 1073.8 686, 1112.2 686, 1117 686 C 1122.6 686, 1167.4 684, 1173 684 C 1179.9 684, 1235.1 677, 1242 677 C 1246.1 677, 1278.9 712, 1283 712 C 1289 712, 1337 713, 1343 713 C 1347.1 713, 1379.9 678, 1384 678 C 1389.1 678, 1429.9 677, 1435 677 C 1439.7 677, 1477.3 715, 1482 715 C 1486.8 715, 1525.2 710, 1530 710 C 1534.7 710, 1572.3 681, 1577 681 C 1584.5 681, 1644.5 683, 1652 683 C 1658.6 683, 1711.4 681, 1718 681 C 1722.6 681, 1759.4 684, 1764 684 C 1771.1 684, 1827.9 684, 1835 684 C 1842.1 684, 1898.9 716, 1906 716 C 1910.6 716, 1947.4 710, 1952 710 L 1970 697 L 1970 922 Z"></path>
    <path fill="#2e2442" stroke="#2e2442"
          d="M -50 922 L -91 715 C -85.3 715, -39.7 697, -34 697 C -26.4 697, 34.4 729, 42 729 C 49.2 729, 106.8 728, 114 728 C 121 728, 177 704, 184 704 C 188.1 704, 220.9 700, 225 700 C 232.4 700, 291.6 733, 299 733 C 304.8 733, 351.2 734, 357 734 C 364 734, 420 733, 427 733 C 433.6 733, 486.4 701, 493 701 C 498.6 701, 543.4 698, 549 698 C 553 698, 585 727, 589 727 C 596.9 727, 660.1 695, 668 695 C 673.2 695, 714.8 731, 720 731 C 726.1 731, 774.9 735, 781 735 C 787.1 735, 835.9 700, 842 700 C 847.5 700, 891.5 728, 897 728 C 901.2 728, 934.8 703, 939 703 C 946.2 703, 1003.8 730, 1011 730 C 1015.4 730, 1050.6 700, 1055 700 C 1061.6 700, 1114.4 704, 1121 704 C 1126.1 704, 1166.9 728, 1172 728 C 1179.4 728, 1238.6 704, 1246 704 C 1250 704, 1282 726, 1286 726 C 1292.4 726, 1343.6 703, 1350 703 C 1357.1 703, 1413.9 726, 1421 726 C 1427.9 726, 1483.1 735, 1490 735 C 1497.1 735, 1553.9 700, 1561 700 C 1566.1 700, 1606.9 697, 1612 697 C 1617.2 697, 1658.8 734, 1664 734 C 1668.2 734, 1701.8 729, 1706 729 C 1712.6 729, 1765.4 734, 1772 734 C 1777.8 734, 1824.2 702, 1830 702 C 1835.9 702, 1883.1 728, 1889 728 C 1895.5 728, 1947.5 732, 1954 732 L 1970 715 L 1970 922 Z"></path>
    <path fill="#29223f" stroke="#29223f"
          d="M -50 922 L -92 732 C -87.7 732, -53.3 718, -49 718 C -43.7 718, -1.2999999999999998 714, 4 714 C 10.3 714, 60.7 716, 67 716 C 72.8 716, 119.2 749, 125 749 C 131.4 749, 182.6 721, 189 721 C 196.3 721, 254.7 747, 262 747 C 268.5 747, 320.5 746, 327 746 C 331.4 746, 366.6 744, 371 744 C 377.8 744, 432.2 719, 439 719 C 445.3 719, 495.7 712, 502 712 C 507.2 712, 548.8 742, 554 742 C 560.8 742, 615.2 749, 622 749 C 629.1 749, 685.9 746, 693 746 C 697 746, 729 715, 733 715 C 738.3 715, 780.7 751, 786 751 C 791.1 751, 831.9 745, 837 745 C 844.9 745, 908.1 744, 916 744 C 920.6 744, 957.4 716, 962 716 C 969 716, 1025 721, 1032 721 C 1039.7 721, 1101.3 745, 1109 745 C 1114.1 745, 1154.9 717, 1160 717 C 1164.8 717, 1203.2 714, 1208 714 C 1214.1 714, 1262.9 712, 1269 712 C 1276.7 712, 1338.3 714, 1346 714 C 1352.5 714, 1404.5 717, 1411 717 C 1417 717, 1465 713, 1471 713 C 1477.6 713, 1530.4 716, 1537 716 C 1542.5 716, 1586.5 747, 1592 747 C 1596.8 747, 1635.2 721, 1640 721 C 1647.4 721, 1706.6 720, 1714 720 C 1719.4 720, 1762.6 713, 1768 713 C 1773 713, 1813 717, 1818 717 C 1822.7 717, 1860.3 744, 1865 744 C 1872.2 744, 1929.8 752, 1937 752 L 1970 732 L 1970 922 Z"></path>
    <path fill="#23203b" stroke="#23203b"
          d="M -50 922 L -93 749 C -86.8 749, -37.2 739, -31 739 C -24.7 739, 25.7 734, 32 734 C 39.2 734, 96.8 731, 104 731 C 111.7 731, 173.3 736, 181 736 C 188.7 736, 250.3 732, 258 732 C 263.4 732, 306.6 736, 312 736 C 317.5 736, 361.5 730, 367 730 C 374.9 730, 438.1 738, 446 738 C 452.8 738, 507.2 764, 514 764 C 521.8 764, 584.2 735, 592 735 C 596.9 735, 636.1 736, 641 736 C 647.8 736, 702.2 729, 709 729 C 714.1 729, 754.9 767, 760 767 C 767.2 767, 824.8 729, 832 729 C 837.2 729, 878.8 736, 884 736 C 890.1 736, 938.9 759, 945 759 C 951.8 759, 1006.2 732, 1013 732 C 1019.7 732, 1073.3 768, 1080 768 C 1086.6 768, 1139.4 737, 1146 737 C 1150.8 737, 1189.2 768, 1194 768 C 1199.2 768, 1240.8 761, 1246 761 C 1250.2 761, 1283.8 762, 1288 762 C 1292.7 762, 1330.3 767, 1335 767 C 1339.9 767, 1379.1 729, 1384 729 C 1389.3 729, 1431.7 763, 1437 763 C 1442 763, 1482 737, 1487 737 C 1494.4 737, 1553.6 737, 1561 737 C 1566.7 737, 1612.3 767, 1618 767 C 1625.1 767, 1681.9 732, 1689 732 C 1694.8 732, 1741.2 760, 1747 760 C 1752.3 760, 1794.7 732, 1800 732 C 1806.5 732, 1858.5 738, 1865 738 C 1872.9 738, 1936.1 767, 1944 767 L 1970 749 L 1970 922 Z"></path>
    <path fill="#1e1e38" stroke="#1e1e38"
          d="M -50 922 L -94 767 C -86.5 767, -26.5 778, -19 778 C -11.3 778, 50.3 779, 58 779 C 65.8 779, 128.2 780, 136 780 C 140.5 780, 176.5 752, 181 752 C 188.7 752, 250.3 754, 258 754 C 263.6 754, 308.4 750, 314 750 C 319.1 750, 359.9 747, 365 747 C 371.6 747, 424.4 750, 431 750 C 437.9 750, 493.1 780, 500 780 C 505.2 780, 546.8 754, 552 754 C 559.1 754, 615.9 783, 623 783 C 628.5 783, 672.5 782, 678 782 C 684.3 782, 734.7 747, 741 747 C 746.4 747, 789.6 779, 795 779 C 801.4 779, 852.6 786, 859 786 C 863.9 786, 903.1 784, 908 784 C 912.6 784, 949.4 755, 954 755 C 958 755, 990 777, 994 777 C 1000 777, 1048 754, 1054 754 C 1059.6 754, 1104.4 777, 1110 777 C 1116.1 777, 1164.9 780, 1171 780 C 1178.3 780, 1236.7 785, 1244 785 C 1249.5 785, 1293.5 787, 1299 787 C 1303.4 787, 1338.6 753, 1343 753 C 1348.2 753, 1389.8 781, 1395 781 C 1402.2 781, 1459.8 748, 1467 748 C 1473.3 748, 1523.7 753, 1530 753 C 1536.5 753, 1588.5 786, 1595 786 C 1601 786, 1649 784, 1655 784 C 1661.6 784, 1714.4 748, 1721 748 C 1725.7 748, 1763.3 786, 1768 786 C 1774.9 786, 1830.1 748, 1837 748 C 1843.3 748, 1893.7 783, 1900 783 C 1907.9 783, 1971.1 784, 1979 784 L 1970 767 L 1970 922 Z"></path>
    <path fill="#191b35" stroke="#191b35"
          d="M -50 922 L -95 784 C -88.9 784, -40.1 767, -34 767 C -27 767, 29 803, 36 803 C 42.1 803, 90.9 764, 97 764 C 104.3 764, 162.7 801, 170 801 C 175.7 801, 221.3 768, 227 768 C 233 768, 281 795, 287 795 C 291.2 795, 324.8 795, 329 795 C 334.2 795, 375.8 772, 381 772 C 386.1 772, 426.9 802, 432 802 C 437 802, 477 772, 482 772 C 486.3 772, 520.7 768, 525 768 C 532 768, 588 764, 595 764 C 602.4 764, 661.6 802, 669 802 C 675.3 802, 725.7 804, 732 804 C 737.3 804, 779.7 804, 785 804 C 789.8 804, 828.2 801, 833 801 C 839.8 801, 894.2 770, 901 770 C 905.6 770, 942.4 772, 947 772 C 954.2 772, 1011.8 797, 1019 797 C 1026.2 797, 1083.8 768, 1091 768 C 1095.5 768, 1131.5 772, 1136 772 C 1143.5 772, 1203.5 768, 1211 768 C 1216.7 768, 1262.3 795, 1268 795 C 1275.3 795, 1333.7 798, 1341 798 C 1345.5 798, 1381.5 770, 1386 770 C 1390.2 770, 1423.8 801, 1428 801 C 1432.2 801, 1465.8 795, 1470 795 C 1474.7 795, 1512.3 764, 1517 764 C 1522.7 764, 1568.3 801, 1574 801 C 1580.5 801, 1632.5 803, 1639 803 C 1646 803, 1702 798, 1709 798 C 1715.1 798, 1763.9 804, 1770 804 C 1775 804, 1815 796, 1820 796 C 1825.4 796, 1868.6 772, 1874 772 C 1878.5 772, 1914.5 767, 1919 767 C 1926.2 767, 1983.8 771, 1991 771 L 1970 784 L 1970 922 Z"></path>
    <path fill="#141932" stroke="#141932"
          d="M -50 922 L -96 802 C -88.7 802, -30.3 783, -23 783 C -17.4 783, 27.4 786, 33 786 C 38.6 786, 83.4 789, 89 789 C 96.3 789, 154.7 787, 162 787 C 167.1 787, 207.9 815, 213 815 C 219.2 815, 268.8 822, 275 822 C 280.9 822, 328.1 786, 334 786 C 340.7 786, 394.3 818, 401 818 C 408.4 818, 467.6 818, 475 818 C 481.6 818, 534.4 792, 541 792 C 547.3 792, 597.7 791, 604 791 C 611.7 791, 673.3 813, 681 813 C 686.6 813, 731.4 820, 737 820 C 744.6 820, 805.4 787, 813 787 C 820.7 787, 882.3 817, 890 817 C 894.1 817, 926.9 784, 931 784 C 937.3 784, 987.7 787, 994 787 C 999.2 787, 1040.8 819, 1046 819 C 1051.9 819, 1099.1 821, 1105 821 C 1110.2 821, 1151.8 783, 1157 783 C 1161.2 783, 1194.8 792, 1199 792 C 1204.2 792, 1245.8 783, 1251 783 C 1258.8 783, 1321.2 786, 1329 786 C 1334.5 786, 1378.5 788, 1384 788 C 1388 788, 1420 782, 1424 782 C 1430.1 782, 1478.9 812, 1485 812 C 1492.3 812, 1550.7 814, 1558 814 C 1563.1 814, 1603.9 814, 1609 814 C 1613.6 814, 1650.4 817, 1655 817 C 1659.9 817, 1699.1 784, 1704 784 C 1711.6 784, 1772.4 818, 1780 818 C 1786.7 818, 1840.3 785, 1847 785 C 1854.6 785, 1915.4 791, 1923 791 L 1970 802 L 1970 922 Z"></path>
    <path fill="#0f172e" stroke="#0f172e"
          d="M -50 922 L -97 819 C -92.3 819, -54.7 805, -50 805 C -44.2 805, 2.2 807, 8 807 C 12.2 807, 45.8 804, 50 804 C 55.8 804, 102.2 809, 108 809 C 113.3 809, 155.7 832, 161 832 C 168 832, 224 802, 231 802 C 235.3 802, 269.7 832, 274 832 C 279.1 832, 319.9 804, 325 804 C 332.2 804, 389.8 802, 397 802 C 404.1 802, 460.9 831, 468 831 C 474 831, 522 835, 528 835 C 533.8 835, 580.2 839, 586 839 C 591.3 839, 633.7 807, 639 807 C 643.4 807, 678.6 835, 683 835 C 690.8 835, 753.2 800, 761 800 C 765.7 800, 803.3 804, 808 804 C 813.6 804, 858.4 806, 864 806 C 868 806, 900 804, 904 804 C 910.1 804, 958.9 802, 965 802 C 971.6 802, 1024.4 833, 1031 833 C 1038.1 833, 1094.9 839, 1102 839 C 1106.7 839, 1144.3 835, 1149 835 C 1154.8 835, 1201.2 837, 1207 837 C 1211.6 837, 1248.4 839, 1253 839 C 1257.5 839, 1293.5 839, 1298 839 C 1303.6 839, 1348.4 833, 1354 833 C 1359.9 833, 1407.1 805, 1413 805 C 1417.5 805, 1453.5 801, 1458 801 C 1465.1 801, 1521.9 808, 1529 808 C 1533.1 808, 1565.9 836, 1570 836 C 1576.3 836, 1626.7 802, 1633 802 C 1637.1 802, 1669.9 809, 1674 809 C 1680.5 809, 1732.5 830, 1739 830 C 1745.1 830, 1793.9 807, 1800 807 C 1804.4 807, 1839.6 834, 1844 834 C 1851.6 834, 1912.4 801, 1920 801 L 1970 819 L 1970 922 Z"></path>
    <path fill="#0a142b" stroke="#0a142b"
          d="M -50 922 L -98 837 C -91.6 837, -40.4 856, -34 856 C -29.2 856, 9.2 854, 14 854 C 19.3 854, 61.7 850, 67 850 C 73 850, 121 817, 127 817 C 134.4 817, 193.6 817, 201 817 C 206.7 817, 252.3 823, 258 823 C 263.8 823, 310.2 826, 316 826 C 320.3 826, 354.7 822, 359 822 C 365.3 822, 415.7 855, 422 855 C 428.6 855, 481.4 848, 488 848 C 492.5 848, 528.5 826, 533 826 C 540 826, 596 819, 603 819 C 607.1 819, 639.9 853, 644 853 C 648 853, 680 857, 684 857 C 688.9 857, 728.1 847, 733 847 C 739.9 847, 795.1 818, 802 818 C 809.8 818, 872.2 849, 880 849 C 886.4 849, 937.6 849, 944 849 C 949.7 849, 995.3 848, 1001 848 C 1008.4 848, 1067.6 820, 1075 820 C 1080.7 820, 1126.3 851, 1132 851 C 1137.6 851, 1182.4 823, 1188 823 C 1192.9 823, 1232.1 857, 1237 857 C 1241.1 857, 1273.9 849, 1278 849 C 1282.3 849, 1316.7 821, 1321 821 C 1328.9 821, 1392.1 857, 1400 857 C 1406.7 857, 1460.3 853, 1467 853 C 1474.5 853, 1534.5 818, 1542 818 C 1548.2 818, 1597.8 822, 1604 822 C 1608.7 822, 1646.3 823, 1651 823 C 1658 823, 1714 852, 1721 852 C 1726.7 852, 1772.3 855, 1778 855 C 1783.8 855, 1830.2 855, 1836 855 C 1840.4 855, 1875.6 817, 1880 817 C 1884.7 817, 1922.3 850, 1927 850 L 1970 837 L 1970 922 Z"></path>
    <path fill="#051127" stroke="#051127"
          d="M -50 922 L -99 854 C -91.1 854, -27.9 836, -20 836 C -12.2 836, 50.2 873, 58 873 C 62.7 873, 100.3 867, 105 867 C 110.1 867, 150.9 872, 156 872 C 161.1 872, 201.9 839, 207 839 C 213.9 839, 269.1 872, 276 872 C 280.2 872, 313.8 871, 318 871 C 325.2 871, 382.8 866, 390 866 C 395 866, 435 870, 440 870 C 444.4 870, 479.6 836, 484 836 C 488.9 836, 528.1 868, 533 868 C 537.3 868, 571.7 834, 576 834 C 581.8 834, 628.2 834, 634 834 C 641.9 834, 705.1 871, 713 871 C 719.8 871, 774.2 836, 781 836 C 787.8 836, 842.2 865, 849 865 C 853.4 865, 888.6 836, 893 836 C 900.1 836, 956.9 867, 964 867 C 971.9 867, 1035.1 843, 1043 843 C 1048.1 843, 1088.9 873, 1094 873 C 1100.7 873, 1154.3 840, 1161 840 C 1167 840, 1215 868, 1221 868 C 1225.1 868, 1257.9 871, 1262 871 C 1268.5 871, 1320.5 841, 1327 841 C 1334.6 841, 1395.4 865, 1403 865 C 1409.5 865, 1461.5 843, 1468 843 C 1473.2 843, 1514.8 841, 1520 841 C 1526.8 841, 1581.2 839, 1588 839 C 1592.3 839, 1626.7 872, 1631 872 C 1637 872, 1685 834, 1691 834 C 1696.5 834, 1740.5 836, 1746 836 C 1753.2 836, 1810.8 867, 1818 867 C 1823.7 867, 1869.3 842, 1875 842 C 1882.4 842, 1941.6 868, 1949 868 L 1970 854 L 1970 922 Z"></path>
    <path fill="#000e24" stroke="#000e24"
          d="M -50 922 L -100 872 C -96 872, -64 859, -60 859 C -53.7 859, -3.3 854, 3 854 C 10.1 854, 66.9 852, 74 852 C 81.7 852, 143.3 854, 151 854 C 158.6 854, 219.4 859, 227 859 C 234.2 859, 291.8 857, 299 857 C 305.3 857, 355.7 856, 362 856 C 366.5 856, 402.5 861, 407 861 C 414 861, 470 883, 477 883 C 482.2 883, 523.8 860, 529 860 C 534.9 860, 582.1 853, 588 853 C 595.9 853, 659.1 860, 667 860 C 671.1 860, 703.9 887, 708 887 C 712.7 887, 750.3 888, 755 888 C 760.7 888, 806.3 885, 812 885 C 817.8 885, 864.2 860, 870 860 C 876.9 860, 932.1 852, 939 852 C 944.3 852, 986.7 890, 992 890 C 997.7 890, 1043.3 886, 1049 886 C 1053.8 886, 1092.2 888, 1097 888 C 1104.8 888, 1167.2 852, 1175 852 C 1179.6 852, 1216.4 886, 1221 886 C 1228.6 886, 1289.4 886, 1297 886 C 1302.4 886, 1345.6 857, 1351 857 C 1357.8 857, 1412.2 855, 1419 855 C 1425.6 855, 1478.4 860, 1485 860 C 1491.2 860, 1540.8 892, 1547 892 C 1551.1 892, 1583.9 887, 1588 887 C 1595.4 887, 1654.6 861, 1662 861 C 1667.6 861, 1712.4 860, 1718 860 C 1724.1 860, 1772.9 858, 1779 858 C 1783 858, 1815 853, 1819 853 C 1824.5 853, 1868.5 888, 1874 888 C 1880.4 888, 1931.6 861, 1938 861 L 1970 872 L 1970 922 Z"></path>
</svg>
